<svg width="23" height="51" viewBox="0 0 23 51" fill="none" xmlns="http://www.w3.org/2000/svg">
<path d="M10.625 44.625C9.45625 44.625 8.45573 44.2089 7.62344 43.3766C6.79115 42.5443 6.375 41.5438 6.375 40.375V10.625C6.375 9.45625 6.79115 8.45573 7.62344 7.62344C8.45573 6.79115 9.45625 6.375 10.625 6.375H40.375C41.5438 6.375 42.5443 6.79115 43.3766 7.62344C44.2089 8.45573 44.625 9.45625 44.625 10.625V40.375C44.625 41.5438 44.2089 42.5443 43.3766 43.3766C42.5443 44.2089 41.5438 44.625 40.375 44.625H10.625ZM12.75 36.125H38.25L30.2812 25.5L23.9062 34L19.125 27.625L12.75 36.125Z" fill="#2A323F"/>
</svg>
